<svg width="32" height="32" viewBox="0 0 32 32" fill="none" xmlns="http://www.w3.org/2000/svg">
<path d="M21.3333 10.6667V17.3333C21.3333 18.3942 21.7547 19.4116 22.5049 20.1617C23.255 20.9119 24.2724 21.3333 25.3333 21.3333C26.3942 21.3333 27.4116 20.9119 28.1617 20.1617C28.9119 19.4116 29.3333 18.3942 29.3333 17.3333V16C29.3331 12.9907 28.3149 10.07 26.4443 7.7127C24.5737 5.35543 21.9607 3.70029 19.0302 3.01638C16.0996 2.33248 13.0239 2.66004 10.3031 3.94581C7.58232 5.23158 5.3765 7.39993 4.04432 10.0983C2.71213 12.7966 2.33193 15.8663 2.96553 18.8081C3.59913 21.75 5.20927 24.391 7.53415 26.3017C9.85902 28.2124 12.7619 29.2805 15.7707 29.3322C18.7796 29.3839 21.7175 28.4163 24.1066 26.5867M21.3333 16C21.3333 18.9455 18.9455 21.3333 16 21.3333C13.0545 21.3333 10.6666 18.9455 10.6666 16C10.6666 13.0545 13.0545 10.6667 16 10.6667C18.9455 10.6667 21.3333 13.0545 21.3333 16Z" stroke="#1E1E1E" stroke-width="3" stroke-linecap="round" stroke-linejoin="round"/>
</svg>
