<svg width="32" height="32" viewBox="0 0 32 32" fill="none" xmlns="http://www.w3.org/2000/svg">
<path d="M21.3333 5.33329H24C24.7072 5.33329 25.3855 5.61424 25.8856 6.11434C26.3857 6.61444 26.6666 7.29272 26.6666 7.99996V26.6666C26.6666 27.3739 26.3857 28.0521 25.8856 28.5522C25.3855 29.0523 24.7072 29.3333 24 29.3333H7.99998C7.29274 29.3333 6.61446 29.0523 6.11436 28.5522C5.61426 28.0521 5.33331 27.3739 5.33331 26.6666V7.99996C5.33331 7.29272 5.61426 6.61444 6.11436 6.11434C6.61446 5.61424 7.29274 5.33329 7.99998 5.33329H10.6666M12 2.66663H20C20.7364 2.66663 21.3333 3.26358 21.3333 3.99996V6.66663C21.3333 7.40301 20.7364 7.99996 20 7.99996H12C11.2636 7.99996 10.6666 7.40301 10.6666 6.66663V3.99996C10.6666 3.26358 11.2636 2.66663 12 2.66663Z" stroke="#1E1E1E" stroke-width="3" stroke-linecap="round" stroke-linejoin="round"/>
</svg>
