<svg width="32" height="32" viewBox="0 0 32 32" fill="none" xmlns="http://www.w3.org/2000/svg">
<rect width="32" height="32" stroke="black"/>
<path d="M21.3334 10.6666C23.4551 10.6666 25.4899 11.5095 26.9902 13.0098C28.4905 14.5101 29.3334 16.5449 29.3334 18.6666V28H24V18.6666C24 17.9594 23.7191 17.2811 23.219 16.781C22.7189 16.2809 22.0406 16 21.3334 16C20.6261 16 19.9478 16.2809 19.4477 16.781C18.9476 17.2811 18.6667 17.9594 18.6667 18.6666V28H13.3334V18.6666C13.3334 16.5449 14.1762 14.5101 15.6765 13.0098C17.1768 11.5095 19.2116 10.6666 21.3334 10.6666Z" stroke="#1E1E1E" stroke-width="3" stroke-linecap="round" stroke-linejoin="round"/>
<path d="M8.00002 12H2.66669V28H8.00002V12Z" stroke="#1E1E1E" stroke-width="3" stroke-linecap="round" stroke-linejoin="round"/>
<path d="M5.33335 7.99996C6.80611 7.99996 8.00002 6.80605 8.00002 5.33329C8.00002 3.86053 6.80611 2.66663 5.33335 2.66663C3.86059 2.66663 2.66669 3.86053 2.66669 5.33329C2.66669 6.80605 3.86059 7.99996 5.33335 7.99996Z" stroke="#1E1E1E" stroke-width="3" stroke-linecap="round" stroke-linejoin="round"/>
</svg>
